HIERARCHY
ROOT Hips
{
	OFFSET 0.00000 0.00000 0.00000
	CHANNELS 6 Xposition Yposition Zposition Zrotation Yrotation Xrotation 
	JOINT LHipJoint
	{
		OFFSET 0 0 0
		CHANNELS 3 Zrotation Yrotation Xrotation
		JOINT LeftHip
		{
			OFFSET 1.75344 -1.53157 0.77399
			CHANNELS 3 Zrotation Yrotation Xrotation
			JOINT LeftKnee
			{
				OFFSET 2.25415 -6.19323 0.00000
				CHANNELS 3 Zrotation Yrotation Xrotation
				JOINT LeftAnkle
				{
					OFFSET 2.30342 -6.32861 0.00000
					CHANNELS 3 Zrotation Yrotation Xrotation
					JOINT LeftToe
					{
						OFFSET 0.10958 -0.30108 1.49206
						CHANNELS 3 Zrotation Yrotation Xrotation
						End Site
						{
							OFFSET 0.00000 -0.00000 0.77783
						}
					}
				}
			}
		}
	}
	JOINT RHipJoint
	{
		OFFSET 0 0 0
		CHANNELS 3 Zrotation Yrotation Xrotation
		JOINT RightHip
		{
			OFFSET -1.81912 -1.53156 0.77399
			CHANNELS 3 Zrotation Yrotation Xrotation
			JOINT RightKnee
			{
				OFFSET -2.22882 -6.12365 0.00000
				CHANNELS 3 Zrotation Yrotation Xrotation
				JOINT RightAnkle
				{
					OFFSET -2.21943 -6.09785 0.00000
					CHANNELS 3 Zrotation Yrotation Xrotation
					JOINT RightToe
					{
						OFFSET -0.18931 -0.52012 1.59379
						CHANNELS 3 Zrotation Yrotation Xrotation
						End Site
						{
							OFFSET -0.00000 -0.00000 0.84686
						}
					}
				}
			}
		}
	}
	JOINT lowerback
	{
		OFFSET 0 0 0
		CHANNELS 3 Zrotation Yrotation Xrotation
		JOINT Chest
		{
			OFFSET -0.00200 1.66634 -0.14248
			CHANNELS 3 Zrotation Yrotation Xrotation
			JOINT Chest2
			{
				OFFSET -0.00875 1.64542 0.09514
				CHANNELS 3 Zrotation Yrotation Xrotation
				JOINT lowerneck
				{
					OFFSET 0 0 0
					CHANNELS 3 Zrotation Yrotation Xrotation
					JOINT Neck
					{
						OFFSET 0.02257 1.59605 0.00839
						CHANNELS 3 Zrotation Yrotation Xrotation
						JOINT Head
						{
							OFFSET -0.10214 1.57530 -0.23335
							CHANNELS 3 Zrotation Yrotation Xrotation
							End Site
							{
								OFFSET -0.03588 1.60717 -0.08062
							}
						}
					}
				}
				JOINT LeftCollar
				{
					OFFSET 0 0 0
					CHANNELS 3 Zrotation Yrotation Xrotation
					JOINT LeftShoulder
					{
						OFFSET 2.54983 1.10186 0.40078
CHANNELS 3 Zrotation Xrotation Yrotation
						JOINT LeftElbow
						{
OFFSET 0 -4.288400 0.000000
CHANNELS 3 Zrotation Xrotation Yrotation
							JOINT LeftWrist
							{
OFFSET 0 -3.065520 -0.000000
CHANNELS 3 Zrotation Xrotation Yrotation
								JOINT lhand
								{
									OFFSET 0 0 0
CHANNELS 3 Zrotation Xrotation Yrotation
									JOINT LFingers
									{
OFFSET 0 -0.753040 0.000000
CHANNELS 3 Zrotation Xrotation Yrotation
										End Site
										{
OFFSET 0 -0.607120 0.000000
										}
									}
								}
								JOINT LThumb
								{
OFFSET 0 0.000000 0.000000
CHANNELS 3 Zrotation Xrotation Yrotation
									End Site
									{
OFFSET 0 -0.616390 0.616390
									}
								}
							}
						}
					}
				}
				JOINT RightCollar
				{
					OFFSET 0 0 0
					CHANNELS 3 Zrotation Yrotation Xrotation
					JOINT RightShoulder
					{
						OFFSET -2.60909 1.35448 0.21802
CHANNELS 3 Zrotation Xrotation Yrotation
						JOINT RightElbow
						{
OFFSET 0 -4.521720 -0.000000
CHANNELS 3 Zrotation Xrotation Yrotation
							JOINT RightWrist
							{
OFFSET 0 -2.891400 0.000000
CHANNELS 3 Zrotation Xrotation Yrotation
								JOINT rhand
								{
									OFFSET 0 0 0
CHANNELS 3 Zrotation Xrotation Yrotation
									JOINT RFingers
									{
OFFSET 0 -0.680540 0.000000
CHANNELS 3 Zrotation Xrotation Yrotation
										End Site
										{
OFFSET 0 -0.548670 0.000000
										}
									}
								}
								JOINT RThumb
								{
OFFSET 0 0.000000 0.000000
CHANNELS 3 Zrotation Xrotation Yrotation
									End Site
									{
OFFSET 0 -0.557050 0.557050
									}
								}
							}
						}
					}
				}
			}
		}
	}
}
MOTION
Frames: 12
Frame Time: 0.008333333333333333
9.907373 15.065014 -37.994525 365.702559 16.839728 -2.501737 0.000000 0.000000 0.000000 -30.113968 -7.369525 -8.814696 2.762699 10.300609 29.955773 0.792175 -11.811758 -16.764484 2.105340 -9.080812 -26.049436 0.000000 0.000000 0.000000 10.484290 -2.091532 -9.875981 -8.151274 -16.229290 53.105469 -0.758354 -9.750831 -22.731309 -0.010585 0.650062 -1.786539 4.616718 2.427359 7.568982 4.192927 3.757229 1.190814 1.377681 1.844426 -2.995687 -14.428964 -13.896191 9.637258 8.576244 -19.971282 3.772502 4.587989 -10.222503 1.900878 0.000000 0.000000 0.000000 22.248468 14.249013 -46.618357 61.230688 -56.628997 35.366957 -1.314287 2.831017 28.783344 0.000000 0.000000 0.000000 -7.125000 0.000000 0.000000 -18.537718 2.436247 -18.755344 0.000000 0.000000 0.000000 -23.365750 -8.919080 46.296906 -20.475100 -31.210521 -5.775537 -23.861102 53.381286 53.214291 0.000000 0.000000 0.000000 7.125000 0.000000 0.000000 -8.568681 -5.319598 -172.172458
9.924157 14.991432 -38.047502 366.713277 17.189276 -2.464486 0.000000 0.000000 0.000000 -31.018108 -6.162527 -9.487661 2.839687 10.430929 30.383866 0.744769 -13.600064 -16.917136 1.871855 -8.592636 -24.530013 0.000000 0.000000 0.000000 9.737543 -2.437441 -10.364865 -8.463452 -16.449714 54.215188 -1.031304 -10.153541 -25.362757 -0.000995 -0.154500 0.424409 4.200823 2.276242 7.425827 3.660503 3.485866 1.304270 1.092475 1.714634 -2.790307 -14.714562 -13.464872 9.760649 8.605156 -19.445833 3.912369 4.668775 -9.970077 1.893445 0.000000 0.000000 0.000000 23.791221 10.297858 -46.547370 58.791784 -55.977544 33.338124 1.265655 2.680436 27.982054 0.000000 0.000000 0.000000 -7.125000 0.000000 0.000000 -17.089546 3.025754 -16.946552 0.000000 0.000000 0.000000 -22.891613 -6.819833 44.922885 -19.904999 -30.527568 -5.483105 -23.867508 53.731272 53.433250 0.000000 0.000000 0.000000 7.125000 0.000000 0.000000 -8.613642 -5.118652 -172.097482
9.920867 14.925424 -38.110105 367.564765 17.229269 -2.626563 0.000000 0.000000 0.000000 -31.678767 -4.722971 -10.197966 2.967988 10.643032 31.085119 0.613027 -15.610843 -16.614946 1.423426 -7.544495 -21.338958 0.000000 0.000000 0.000000 9.164801 -2.276990 -10.177430 -8.539511 -16.502106 54.483548 -1.281818 -10.998085 -27.923244 -0.002782 -0.334943 0.920201 4.337369 2.141163 7.449780 3.060702 3.290327 1.422439 0.417296 1.616350 -2.638924 -14.652854 -13.122093 9.764553 8.251481 -18.986250 4.353657 4.572351 -9.744820 1.932821 0.000000 0.000000 0.000000 25.074299 6.031065 -46.193971 54.239652 -54.567922 29.595664 5.108952 0.182834 32.849334 0.000000 0.000000 0.000000 -7.125000 0.000000 0.000000 -15.012419 -1.994026 -16.080236 0.000000 0.000000 0.000000 -22.503530 -4.775081 43.273915 -19.287371 -29.774082 -5.172788 -23.128991 53.321813 52.893569 0.000000 0.000000 0.000000 7.125000 0.000000 0.000000 -8.786609 -5.822104 -172.053878
9.904664 14.867697 -38.154255 368.258311 16.916235 -2.950456 0.000000 0.000000 0.000000 -32.284329 -3.840494 -10.433531 3.076765 10.818237 31.669246 0.785034 -15.398250 -17.891963 2.253445 -9.375053 -26.975895 0.000000 0.000000 0.000000 8.758156 -1.907427 -9.461284 -8.415570 -16.416520 54.045984 -1.520186 -11.993072 -30.333759 -0.013575 -0.743704 2.043886 4.434831 1.905084 7.251185 2.796690 2.953566 1.590743 0.132874 1.454217 -2.342273 -14.722169 -12.558736 9.281403 7.350309 -18.170556 5.143367 4.304711 -9.340275 2.076505 0.000000 0.000000 0.000000 25.382284 2.432144 -45.362952 49.365763 -52.732946 25.669500 6.740069 -0.387045 30.370306 0.000000 0.000000 0.000000 -7.125000 0.000000 0.000000 -14.006558 0.222342 -14.388690 0.000000 0.000000 0.000000 -22.768961 -2.799623 42.741689 -18.722721 -29.072584 -4.895350 -24.865910 53.316328 53.998041 0.000000 0.000000 0.000000 7.125000 0.000000 0.000000 -8.358901 -4.316836 -172.209031
9.888594 14.841601 -38.184894 368.848875 16.342468 -2.922730 0.000000 0.000000 0.000000 -32.773184 -3.563623 -10.665848 3.137433 10.914237 31.991241 0.847010 -15.568004 -18.430504 2.356249 -9.571099 -27.599231 0.000000 0.000000 0.000000 8.556411 -1.366934 -8.908158 -8.192392 -16.258919 53.252647 -1.778434 -13.082472 -32.791678 -0.024769 -0.997215 2.741347 4.874991 1.688578 6.995683 2.478681 2.683539 1.314120 -0.412523 1.309877 -2.457898 -14.370364 -11.928367 8.657409 6.331558 -17.200095 5.948188 3.947418 -8.856022 2.192034 0.000000 0.000000 0.000000 25.252893 -0.429569 -44.241774 44.232380 -50.385550 21.646170 9.238663 -0.854398 32.214862 0.000000 0.000000 0.000000 -7.125000 0.000000 0.000000 -12.693143 -1.875297 -13.432976 0.000000 0.000000 0.000000 -22.990724 -0.730019 40.766790 -18.165251 -28.368146 -4.627476 -24.345014 54.951015 54.954158 0.000000 0.000000 0.000000 7.125000 0.000000 0.000000 -8.768848 -3.605799 -171.700471
9.848356 14.785112 -38.215845 369.321441 15.333908 -3.141070 0.000000 0.000000 0.000000 -33.032681 -3.081156 -11.148602 3.290118 11.150428 32.789043 0.930853 -15.233066 -18.940914 2.572424 -9.966918 -28.871049 0.000000 0.000000 0.000000 8.642039 -0.776761 -7.964166 -7.816342 -15.982370 51.898294 -2.038779 -14.443402 -35.339487 -0.056833 -1.538767 4.232470 5.168762 1.316579 6.882590 2.463894 2.208717 1.172786 -0.549690 1.067368 -2.548909 -13.917434 -11.170515 7.537146 4.898275 -15.961923 6.858766 3.431209 -8.241607 2.364514 0.000000 0.000000 0.000000 24.261604 -2.424980 -41.800937 39.927437 -48.025056 18.385752 13.024747 -2.451784 33.342086 0.000000 0.000000 0.000000 -7.125000 0.000000 0.000000 -10.680511 -3.530331 -11.513475 0.000000 0.000000 0.000000 -24.056215 0.990520 40.511768 -17.675874 -27.740153 -4.397328 -25.403979 55.341549 55.666179 0.000000 0.000000 0.000000 7.125000 0.000000 0.000000 -8.549553 -2.661420 -171.760407
9.793249 14.764160 -38.237239 369.644110 13.858617 -3.319660 0.000000 0.000000 0.000000 -33.104510 -2.687971 -11.382012 3.340133 11.226296 33.046950 1.115294 -13.825810 -19.878437 3.267519 -11.114920 -32.669778 0.000000 0.000000 0.000000 9.042682 -0.043270 -6.963586 -7.307847 -15.585605 50.028956 -2.363997 -15.387141 -37.768385 -0.120858 -2.234887 6.155441 5.791418 0.908462 6.804200 2.330650 1.718552 0.833790 -0.994008 0.804419 -2.856622 -12.620438 -10.271603 6.179427 2.757623 -14.402261 7.945422 2.864919 -7.485135 2.766021 0.000000 0.000000 0.000000 23.994155 -3.058408 -39.686786 37.161261 -46.294260 16.356804 15.150901 -3.572870 34.723869 0.000000 0.000000 0.000000 -7.125000 0.000000 0.000000 -9.658872 -5.249741 -10.648317 0.000000 0.000000 0.000000 -24.493481 2.170820 38.337017 -17.257942 -27.196472 -4.204551 -24.253747 55.617959 56.851003 0.000000 0.000000 0.000000 7.125000 0.000000 0.000000 -9.235986 -1.935538 -170.961888
9.707913 14.760118 -38.232754 370.285274 11.560880 -3.699626 0.000000 0.000000 0.000000 -33.284303 -1.431294 -11.240966 3.262551 11.108419 32.646363 1.257130 -12.281208 -20.564981 3.971662 -12.120934 -36.163475 0.000000 0.000000 0.000000 9.200692 1.348878 -5.665310 -6.761655 -15.127627 47.966689 -2.675478 -16.325588 -39.991909 -0.160118 -2.574951 7.097709 5.601671 0.659254 6.478125 2.374558 1.347024 0.852847 -0.804925 0.626154 -2.681394 -10.924465 -9.058386 4.972186 0.647643 -12.448526 8.795590 1.874060 -6.514259 2.791225 0.000000 0.000000 0.000000 22.951769 -4.023216 -36.382255 33.597263 -43.783435 13.833890 16.899925 -3.976370 36.321186 0.000000 0.000000 0.000000 -7.125000 0.000000 0.000000 -8.920181 -7.152968 -10.077581 0.000000 0.000000 0.000000 -25.318671 2.900390 36.998230 -17.077377 -26.959626 -4.122385 -25.308113 55.033602 56.768776 0.000000 0.000000 0.000000 7.125000 0.000000 0.000000 -8.846836 -1.706917 -171.310302
9.641876 14.785717 -38.245128 370.459277 9.003064 -3.875687 0.000000 0.000000 0.000000 -33.060461 -1.107413 -11.239010 3.231068 11.059989 32.482394 1.342246 -11.429512 -21.039470 3.440494 -11.375977 -33.558825 0.000000 0.000000 0.000000 9.551990 2.917835 -4.491467 -6.148710 -14.570812 45.575468 -2.720009 -16.917670 -40.647143 -0.098831 -2.003494 5.516135 6.569625 0.284427 6.545088 2.376428 0.941532 0.526333 -1.309220 0.397366 -3.065807 -9.544730 -7.510382 3.472837 -0.870222 -10.069046 9.963036 1.135345 -5.356443 3.109959 0.000000 0.000000 0.000000 22.576537 -3.380760 -33.839974 31.840160 -42.418644 12.633132 18.380837 -4.974811 36.660478 0.000000 0.000000 0.000000 -7.125000 0.000000 0.000000 -8.180242 -7.783439 -9.301803 0.000000 0.000000 0.000000 -26.245523 3.485333 35.765359 -17.078542 -26.961201 -4.122885 -24.866948 54.508896 56.539917 0.000000 0.000000 0.000000 7.125000 0.000000 0.000000 -8.949779 -2.038395 -171.265555
9.576175 14.829502 -38.240905 370.704047 6.566586 -3.533002 0.000000 0.000000 0.000000 -33.027847 -1.458382 -11.125757 3.082817 10.827891 31.701504 1.486194 -9.107145 -21.852934 3.410217 -11.329888 -33.402254 0.000000 0.000000 0.000000 9.128366 3.511351 -5.315262 -6.013889 -14.441772 45.037331 -2.562315 -15.960620 -39.180481 -0.027415 -1.063755 2.924348 7.306039 -0.238793 5.598896 2.609909 0.253387 -0.101230 -1.412564 0.030010 -3.235181 -8.189503 -5.941603 4.034427 -2.841284 -7.861472 10.328421 0.351982 -4.273615 2.848580 0.000000 0.000000 0.000000 21.486392 -1.554321 -31.107498 30.190099 -41.055682 11.534301 19.251318 -5.111544 36.742048 0.000000 0.000000 0.000000 -7.125000 0.000000 0.000000 -7.729787 -8.045184 -8.810767 0.000000 0.000000 0.000000 -27.764867 3.902620 35.416716 -16.900381 -26.726293 -4.042406 -23.215761 53.341251 57.584593 0.000000 0.000000 0.000000 7.125000 0.000000 0.000000 -9.759095 -1.573204 -170.370480
9.507061 14.877002 -38.238771 370.933629 3.985923 -3.492977 0.000000 0.000000 0.000000 -32.933499 -1.649992 -10.691406 2.933068 10.585823 30.895437 1.494177 -7.282400 -21.875857 2.849087 -10.444620 -30.430874 0.000000 0.000000 0.000000 8.771706 4.077948 -6.095599 -5.915873 -14.346317 44.643194 -2.482998 -14.833434 -37.945940 -0.008169 -0.571851 1.571359 8.031495 -0.570825 5.367486 2.714663 -0.149695 -0.282109 -1.672413 -0.188333 -3.328970 -5.897392 -4.741470 2.440038 -5.180362 -5.867975 11.521081 -0.809000 -3.323348 3.316543 0.000000 0.000000 0.000000 20.351230 -0.617340 -28.129491 28.896225 -39.928307 10.694079 19.784675 -4.422110 37.148798 0.000000 0.000000 0.000000 -7.125000 0.000000 0.000000 -7.512993 -8.563639 -8.617060 0.000000 0.000000 0.000000 -28.848682 3.492983 33.844997 -16.520214 -26.220870 -3.872964 -22.538383 53.015879 56.935699 0.000000 0.000000 0.000000 7.125000 0.000000 0.000000 -9.850430 -2.335676 -170.414823
9.438176 14.927031 -38.227006 371.198122 1.363442 -3.366616 0.000000 0.000000 0.000000 -32.945081 -1.697283 -10.174542 2.697738 10.188763 29.590204 1.505919 -4.332714 -22.199013 3.295868 -11.154812 -32.808989 0.000000 0.000000 0.000000 8.589264 4.994547 -6.438021 -5.720324 -14.151685 43.848615 -2.476355 -14.020223 -37.315510 -0.004795 0.445912 -1.225366 8.152579 -0.777996 4.968271 3.086936 -0.435912 -0.483483 -1.330734 -0.333869 -3.338216 -4.627715 -3.519685 1.574215 -6.747524 -3.979139 12.502147 -1.543726 -2.439066 3.755305 0.000000 0.000000 0.000000 18.884493 0.499973 -26.029246 28.548375 -39.615932 10.471565 19.973640 -4.527041 36.733036 0.000000 0.000000 0.000000 -7.125000 0.000000 0.000000 -7.347488 -8.193023 -8.381152 0.000000 0.000000 0.000000 -30.393072 2.944729 33.769607 -16.333905 -25.971375 -3.791014 -24.006533 53.760215 57.527278 0.000000 0.000000 0.000000 7.125000 0.000000 0.000000 -9.478123 -1.405731 -170.627035
